<svg id="timeline" height="180" alt="My experience in a timeline"><g transform="translate(20,20)"><g class="data"><g class="entry" transform="translate(0,0)"><rect rx="2" ry="2" width="339" x="1" y="1" height="57" style="fill: rgb(80, 123, 148);"></rect><text x="170.5" y="34.5">Lecturer</text></g><g class="entry" transform="translate(341,0)"><rect rx="2" ry="2" width="451" x="1" y="1" height="57" style="fill: rgb(80, 123, 148);"></rect><text x="226.5" y="34.5">PhD</text></g><g class="entry" transform="translate(794,0)"><rect rx="2" ry="2" width="157" x="1" y="1" height="57" style="fill: rgb(80, 123, 148);"></rect><text x="79.5" y="34.5">PARC</text></g><g class="entry" transform="translate(953,0)"><rect rx="2" ry="2" width="117" x="1" y="1" height="57" style="fill: rgb(80, 123, 148);"></rect><text x="59.5" y="34.5">Yahoo Labs</text></g><g class="entry" transform="translate(1088,0)"><rect rx="2" ry="2" width="94" x="1" y="1" height="28.5" style="fill: rgb(80, 123, 148);"></rect><text x="48" y="20.25">Uniandes</text></g><g class="entry" transform="translate(1143,0)"><rect rx="2" ry="2" width="39" x="1" y="29.5" height="28.5" style="fill: rgb(80, 123, 148);"></rect><text x="20.5" y="48.75">Berkeley</text></g><g class="entry" transform="translate(0,61)"><rect rx="2" ry="2" width="792" x="1" y="1" height="45.6" style="fill: rgb(134, 198, 215);"></rect><text x="397" y="28.8">Co-founder/CTO DUTO</text></g><g class="entry" transform="translate(794,61)"><rect rx="2" ry="2" width="252" x="1" y="1" height="45.6" style="fill: rgb(134, 198, 215);"></rect><text x="127" y="28.8">Other projects</text></g><g class="entry" transform="translate(1048,61)"><rect rx="2" ry="2" width="134" x="1" y="1" height="45.6" style="fill: rgb(134, 198, 215);"></rect><text x="68" y="28.8">BTactile</text></g></g><g class="axis" transform="translate(0,125)" fill="none" font-size="10" font-family="sans-serif" text-anchor="middle"><path class="base" d="M0,0L1184,0"></path><path class="domain" stroke="#000" d="M0.5,6V0.5H1184.5V6"></path><g class="tick" opacity="1" transform="translate(137.5, 0)"><line y2="6" y1="-6"></line><text fill="#000" y="9" dy="0.71em">2006</text></g><g class="tick" opacity="1" transform="translate(288.5, 0)"><line y2="6" y1="-6"></line><text fill="#000" y="9" dy="0.71em">2008</text></g><g class="tick" opacity="1" transform="translate(439.5, 0)"><line y2="6" y1="-6"></line><text fill="#000" y="9" dy="0.71em">2009</text></g><g class="tick" opacity="1" transform="translate(590.5, 0)"><line y2="6" y1="-6"></line><text fill="#000" y="9" dy="0.71em">2011</text></g><g class="tick" opacity="1" transform="translate(741.5, 0)"><line y2="6" y1="-6"></line><text fill="#000" y="9" dy="0.71em">2012</text></g><g class="tick" opacity="1" transform="translate(892.5, 0)"><line y2="6" y1="-6"></line><text fill="#000" y="9" dy="0.71em">2014</text></g><g class="tick" opacity="1" transform="translate(1043.5, 0)"><line y2="6" y1="-6"></line><text fill="#000" y="9" dy="0.71em">2015</text></g></g></g></svg>